# xmcd
#
# Track frame offsets: 
#        150
#        17364
#        34302
#        52406
#        67089
#        79794
#        93847
#        112499
#        126294
#        145565
#        162185
#        176481
#
# Disc length: 2555 seconds
#
# Revision: 0
# Processed by: cddbd v1.5.2PL0 Copyright (c) Steve Scherf et al.
# Submitted via: ExactAudioCopyFreeDBPlugin 1.0
#
DISCID=a609f90c
DTITLE=Manuel Medrano - Afuera del Planeta
DYEAR=2015
DGENRE=Blues
TTITLE0=Afuera del Planeta
TTITLE1=Bajo El Água
TTITLE2=Como Hacer para Olvidarte
TTITLE3=Cuando te Pensaba
TTITLE4=Donde Nadie Pueda Ir
TTITLE5=El Swing de la Propuesta
TTITLE6=La Mujer que Bota Fuego
TTITLE7=Quédate
TTITLE8=Si Pudiera
TTITLE9=Sin Saber Por Qué
TTITLE10=Una y Otra Vez
TTITLE11=Yo Solo Nado Contigo
EXTD=
EXTT0=
EXTT1=
EXTT2=
EXTT3=
EXTT4=
EXTT5=
EXTT6=
EXTT7=
EXTT8=
EXTT9=
EXTT10=
EXTT11=
PLAYORDER=
